<svg xmlns="http://www.w3.org/2000/svg" width="1200" height="440" viewBox="0 0 1200 440" role="img" aria-labelledby="title desc">
  <title id="title">Hey Skills</title>
  <desc id="desc">Portable skills for capable agents, illustrated as connected instruction cards.</desc>
  <rect width="1200" height="440" rx="12" fill="#1C1C1C"/>
  <g opacity=".42" stroke="#353535">
    <path d="M0 88h1200M0 176h1200M0 264h1200M0 352h1200"/>
    <path d="M120 0v440M240 0v440M360 0v440M480 0v440M600 0v440M720 0v440M840 0v440M960 0v440M1080 0v440"/>
  </g>
  <g transform="translate(104 84)">
    <rect width="64" height="64" rx="12" fill="#E5E5E5"/>
    <path d="M21 20v24M43 20v24M21 32h22" fill="none" stroke="#1C1C1C" stroke-width="5" stroke-linecap="round"/>
    <text x="0" y="139" fill="#E5E5E5" font-family="Inter, ui-sans-serif, system-ui, sans-serif" font-size="70" font-weight="650" letter-spacing="-2">Hey Skills</text>
    <text x="2" y="184" fill="#A1A1A1" font-family="Inter, ui-sans-serif, system-ui, sans-serif" font-size="24">Portable instructions. Clear provenance. Better agent work.</text>
    <g transform="translate(2 224)" font-family="Inter, ui-sans-serif, system-ui, sans-serif" font-size="15">
      <rect width="144" height="36" rx="8" fill="#292929" stroke="#3A3A3A"/>
      <text x="18" y="23" fill="#E5E5E5">Agent-neutral</text>
      <rect x="156" width="156" height="36" rx="8" fill="#292929" stroke="#3A3A3A"/>
      <text x="174" y="23" fill="#E5E5E5">Creator-credited</text>
      <rect x="324" width="120" height="36" rx="8" fill="#292929" stroke="#3A3A3A"/>
      <text x="342" y="23" fill="#E5E5E5">Open format</text>
    </g>
  </g>
  <g transform="translate(780 74)">
    <rect x="58" y="0" width="250" height="158" rx="12" fill="#242424" stroke="#414141"/>
    <circle cx="88" cy="32" r="8" fill="#7DD3FC"/>
    <path d="M112 29h156M82 68h180M82 92h138M82 116h164" stroke="#555" stroke-width="8" stroke-linecap="round"/>
    <rect x="0" y="134" width="250" height="158" rx="12" fill="#202020" stroke="#414141"/>
    <circle cx="30" cy="166" r="8" fill="#A7F3D0"/>
    <path d="M54 163h156M24 202h180M24 226h126M24 250h166" stroke="#555" stroke-width="8" stroke-linecap="round"/>
    <path d="M275 178v86" stroke="#A1A1A1" stroke-width="2" stroke-dasharray="5 7"/>
    <circle cx="275" cy="282" r="19" fill="#E5E5E5"/>
    <path d="m267 282 6 6 11-13" fill="none" stroke="#1C1C1C" stroke-width="3" stroke-linecap="round" stroke-linejoin="round"/>
  </g>
</svg>

